# xmcd
#
# Track frame offsets:
#	150
#	17844
#	35607
#	53374
#	68236
#	86805
#	103524
#	119862
#	137185
#	152082
#
# Disc length: 2253 seconds
#
# Revision: 0
# Processed by: cddbd v1.4PL0 Copyright (c) Steve Scherf et al.
# Submitted via: dBpowerAMP V4.0
#
DISCID=8808cb0a
DTITLE=บี น้ำทิพย์ - ผู้หญิง...ไม่กล้า
DYEAR=2003
DGENRE=Pop
TTITLE0=เรื่องส่วนตัว
TTITLE1=ผู้หญิง...ไม่กล้า
TTITLE2=เสื้อดำกับยีนส์
TTITLE3=เป็นของเธอ
TTITLE4=นาทีสุดท้าย
TTITLE5=ลุ้น
TTITLE6=กลัว
TTITLE7=คนใจเหงา
TTITLE8=สายไป
TTITLE9=คำตอบคือรัก
EXTD=
EXTT0=
EXTT1=
EXTT2=
EXTT3=
EXTT4=
EXTT5=
EXTT6=
EXTT7=
EXTT8=
EXTT9=
PLAYORDER=
